<svg id="Capa_1" data-name="Capa 1" xmlns="http://www.w3.org/2000/svg" viewBox="0 0 180 95.31"><defs><style>.cls-1{fill:#fff;}.cls-2{fill:#fff;}.cls-3,.cls-4{fill:none;stroke:#fff;stroke-miterlimit:10;}.cls-3{stroke-width:4px;}.cls-4{stroke-width:2px;}</style></defs><title>icono_Pmorelius-anime</title><polygon class="cls-1" points="76.22 15.89 76.28 2.89 81.2 2.92 81.14 13.56 76.22 15.89"/><path class="cls-1" d="M75.48,17l.07-14.89h6.38L81.86,14ZM77,3.62V14.74l3.46-1.64V3.64Z"/><polygon class="cls-1" points="66.27 20.47 66.34 7.48 71.25 7.5 71.19 18.14 66.27 20.47"/><path class="cls-1" d="M65.53,21.64V6.75h6.38l0,11.88ZM67.06,8.22v11.1l3.37-1.64V8.23Z"/><polygon class="cls-1" points="98.73 13.56 98.67 2.92 103.58 2.89 103.64 15.89 98.73 13.56"/><path class="cls-1" d="M104.39,17,98,14V2.2h6.38ZM99.45,13.1l3.45,1.64V3.62H99.45Z"/><polygon class="cls-1" points="108.66 18.14 108.61 7.5 113.53 7.48 113.59 20.47 108.66 18.14"/><path class="cls-1" d="M114.32,21.64l-6.38-3V6.79h6.38Zm-4.92-4,3.45,1.64V8.22h-3.54Z"/><path class="cls-1" d="M163.73,5.67a5,5,0,1,1-3.6,6h0A5,5,0,0,1,163.73,5.67Zm2.12,8.48a3.79,3.79,0,1,0-4.6-2.74v0a3.78,3.78,0,0,0,4.59,2.75Z"/><path class="cls-1" d="M166.44,16.45a6.19,6.19,0,0,1-3.76-11.78h0l1.54-.33a6.19,6.19,0,0,1,2.23,12.16ZM164.31,8a2.55,2.55,0,1,0,3.1,1.86A2.56,2.56,0,0,0,164.31,8Z"/><path class="cls-1" d="M129.47,29.6a5,5,0,1,1-3.6,6A5,5,0,0,1,129.47,29.6Zm2.12,8.48a3.78,3.78,0,1,0-4.6-2.75h0a3.76,3.76,0,0,0,4.56,2.76Z"/><path class="cls-1" d="M132.19,40.42a6.19,6.19,0,0,1-3.77-11.71h0l1.54-.33a6.19,6.19,0,0,1,2.23,12.15ZM130.06,32a2.53,2.53,0,1,0,.23-.06Z"/><polygon class="cls-1" points="136.07 36.28 134.9 31.59 151.76 27.37 160.81 12.68 164.93 15.22 154.85 31.59 136.07 36.28"/><path class="cls-1" d="M135.54,37.18,134,31.07l17.28-4.32,9.29-15.06,5.36,3.3L155.31,32.27Zm.24-5.06.89,3.29L154.46,31,164,15.45l-2.88-1.76-8.83,14.4Z"/><path class="cls-1" d="M129.14,71.39a5,5,0,1,1-3.6,6h0A5,5,0,0,1,129.14,71.39Zm2.13,8.49a3.79,3.79,0,1,0-4.59-2.76h0A3.79,3.79,0,0,0,131.27,79.88Z"/><path class="cls-1" d="M156.07,58.84a5,5,0,1,1-3.6,6h0A5,5,0,0,1,156.07,58.84Zm2.12,8.48a3.79,3.79,0,1,0-4.6-2.75h0A3.79,3.79,0,0,0,158.19,67.32Z"/><path class="cls-1" d="M158.78,69.65A6.19,6.19,0,0,1,155,57.87h0l1.53-.36a6.2,6.2,0,0,1,2.23,12.16Zm-2.12-8.48a2.55,2.55,0,1,0,3.07,1.9l0,0A2.54,2.54,0,0,0,156.66,61.17Z"/><path class="cls-1" d="M131.85,82.21A6.19,6.19,0,0,1,128,70.47h0l1.54-.33a6.2,6.2,0,0,1,2.24,12.16Zm-2.12-8.48a2.55,2.55,0,0,0,.75,5,3,3,0,0,0,.43-.1,2.55,2.55,0,0,0-1.24-4.94Z"/><polygon class="cls-1" points="149.53 92.15 131.76 80.27 134.46 76.25 148.28 85.49 153.42 78.12 154.47 66.6 159.3 67.05 158.12 79.83 149.53 92.15"/><path class="cls-1" d="M149.73,93.15l-19-12.68,3.5-5.23,13.84,9.25,4.61-6.63,1.11-12,6.28.57-1.27,13.71ZM132.78,80.06l16.57,11.08,8.06-11.52,1.08-11.88-3.35-.31-1,11-5.66,8.12-13.81-9.27Z"/><path class="cls-1" d="M170.23,27.07a5,5,0,1,1-3.59,6V33a5,5,0,0,1,3.6-6Zm2.13,8.48a3.79,3.79,0,1,0-4.61-2.76,3.78,3.78,0,0,0,4.61,2.76C174.38,35,170.33,36.05,172.36,35.55Z"/><path class="cls-1" d="M135.68,50.64a5,5,0,1,1-3.6,6h0A5,5,0,0,1,135.68,50.64Zm2.12,8.48a3.78,3.78,0,1,0-4.6-2.75h0A3.79,3.79,0,0,0,137.8,59.12Z"/><polygon class="cls-1" points="141.99 56.49 140.47 51.91 156.86 46.48 167.69 33.23 171.44 36.28 159.72 50.63 141.99 56.49"/><path class="cls-1" d="M172.94,37.88a6.19,6.19,0,0,1-3.76-11.78h0l1.54-.33A6.19,6.19,0,0,1,173,37.94Zm-2.12-8.48a2.55,2.55,0,1,0,3.08,1.86v0A2.55,2.55,0,0,0,170.82,29.4Z"/><path class="cls-1" d="M138.39,61.46a6.19,6.19,0,0,1-3.76-11.78h0l1.54-.33A6.19,6.19,0,0,1,138.4,61.5ZM136.26,53a2.55,2.55,0,1,0,3.09,1.85A2.53,2.53,0,0,0,136.26,53Z"/><path class="cls-1" d="M141.53,57.41l-2-6,16.88-5.57,11.15-13.67,4.88,4L160.15,51.26Zm-.13-5,1,3.2L159.28,50,170.4,36.39l-2.61-2.14L157.3,47.11Z"/><path class="cls-1" d="M16.14,5.67a5,5,0,1,1-6,3.6A4.94,4.94,0,0,1,16.14,5.67ZM14,14.15a3.79,3.79,0,1,0-2.75-4.62A3.8,3.8,0,0,0,14,14.15Z"/><path class="cls-1" d="M8.92,8.94A6.19,6.19,0,0,1,15.7,4.3l1.44.33h0A6.19,6.19,0,1,1,8.88,9Zm3.54.89A2.55,2.55,0,1,0,15.55,8h0a2.53,2.53,0,0,0-3.07,1.84Z"/><path class="cls-1" d="M50.38,29.6a5,5,0,1,1-6,3.62A5,5,0,0,1,50.38,29.6Zm-2.13,8.48a3.78,3.78,0,1,0-2.75-4.59h0A3.79,3.79,0,0,0,48.25,38.08Z"/><path class="cls-1" d="M43.17,32.91a6.21,6.21,0,0,1,6.74-4.65l1.54.33h0a6.2,6.2,0,1,1-8.27,4.32Zm3.54.88A2.55,2.55,0,1,0,49.81,32h0A2.55,2.55,0,0,0,46.71,33.79Z"/><polygon class="cls-1" points="43.79 36.28 44.97 31.59 28.1 27.37 19.04 12.68 14.93 15.22 25.01 31.59 43.79 36.28"/><path class="cls-1" d="M24.55,32.22,13.92,14.94l5.37-3.3,9.27,15.07L45.84,31l-1.52,6.1ZM27.63,28,18.8,13.69l-2.88,1.76L25.47,31l17.77,4.45.82-3.29Z"/><path class="cls-1" d="M23.78,58.84a5,5,0,1,1-6,3.61A4.95,4.95,0,0,1,23.78,58.84Zm-2.11,8.48a3.79,3.79,0,1,0-2.75-4.6h0A3.8,3.8,0,0,0,21.67,67.32Z"/><path class="cls-1" d="M16.57,62.15a6.21,6.21,0,0,1,6.74-4.64l1.54.33h0a6.19,6.19,0,1,1-8.27,4.32Zm3.54.88a2.55,2.55,0,1,0,3.1-1.86A2.55,2.55,0,0,0,20.11,63Z"/><path class="cls-1" d="M50.71,71.39a5,5,0,1,1-6,3.61h0A5,5,0,0,1,50.71,71.39ZM48.6,79.88a3.79,3.79,0,1,0-2.77-4.6,3.78,3.78,0,0,0,2.77,4.6Z"/><path class="cls-1" d="M43.5,74.69a6.18,6.18,0,0,1,6.77-4.63l1.54.33h0a6.19,6.19,0,1,1-8.27,4.32Zm3.54.9a2.55,2.55,0,1,0,3.09-1.86h0a2.53,2.53,0,0,0-3.07,1.84Z"/><polygon class="cls-1" points="30.32 92.15 48.09 80.27 45.4 76.25 31.57 85.49 26.45 78.12 25.38 66.6 20.57 67.05 21.75 79.83 30.32 92.15"/><path class="cls-1" d="M21,80.09,19.78,66.38,26,65.81l1.18,12,4.61,6.63,13.84-9.25,3.5,5.23L30.1,93.15ZM45.2,77.21,31.39,86.44l-5.61-8.06-1-11-3.35.3L22.5,79.57,30.55,91.1,47.13,80Z"/><path class="cls-1" d="M44.19,50.64a5,5,0,1,1-6,3.6A5,5,0,0,1,44.19,50.64Zm-2.13,8.48a3.78,3.78,0,1,0-2.75-4.59h0A3.79,3.79,0,0,0,42.06,59.12Z"/><path class="cls-1" d="M9.63,27.07a5,5,0,1,1-6,3.6h0A5,5,0,0,1,9.63,27.07ZM7.51,35.55a3.78,3.78,0,1,0-2.77-4.61,3.78,3.78,0,0,0,2.77,4.61Z"/><path class="cls-1" d="M2.41,30.37a6.24,6.24,0,0,1,6.74-4.66l1.54.34h0a6.19,6.19,0,1,1-8.26,4.32ZM6,31.24a2.55,2.55,0,1,0,3.1-1.84h0A2.56,2.56,0,0,0,6,31.24Z"/><path class="cls-1" d="M37,53.94A6.19,6.19,0,0,1,43.7,49.3l1.55.33h0A6.2,6.2,0,1,1,37,54Zm3.53.89A2.55,2.55,0,1,0,43.6,53,2.55,2.55,0,0,0,40.5,54.83Z"/><polygon class="cls-1" points="37.87 56.49 39.39 51.91 23 46.48 12.18 33.23 8.43 36.28 20.15 50.63 37.87 56.49"/><path class="cls-1" d="M19.72,51.26,7.39,36.18l4.89-4L23.44,45.86l16.87,5.57-2,6Zm2.88-4.15L12.07,34.25,9.45,36.39,20.59,50l16.82,5.56,1.05-3.2Z"/><circle class="cls-2" cx="94.92" cy="42.55" r="2.91"/><polygon class="cls-3" points="117.48 30.77 89.83 17.77 62.13 30.84 55.52 60.88 75.02 84.76 105.48 84.76 124.49 60.77 117.48 30.77"/><polygon class="cls-4" points="106.88 38.69 89.9 30.7 72.89 38.72 68.84 57.17 80.81 71.83 99.5 71.83 111.17 57.09 106.88 38.69"/></svg>