<svg id="Capa_1" data-name="Capa 1" xmlns="http://www.w3.org/2000/svg" viewBox="0 0 559.08 71.04"><defs><style>.cls-1{fill:#ef5a23;}.cls-2{fill:#f05a28;}.cls-3,.cls-4{fill:none;stroke:#ef5a23;stroke-miterlimit:10;}.cls-3{stroke-width:4px;}.cls-4{stroke-width:2px;}.cls-5{fill:#3873b4;}</style></defs><title>New_logo_Pmorelius2023_web-blue</title><polygon class="cls-1" points="55.1 13.46 55.14 4.44 58.56 4.45 58.51 11.84 55.1 13.46"/><path class="cls-1" d="M54.59,14.27l0-10.34,4.44,0,0,8.21ZM55.65,5l0,7.71L58,11.52l0-6.56Z"/><polygon class="cls-1" points="48.19 16.65 48.23 7.62 51.65 7.64 51.61 15.03 48.19 16.65"/><path class="cls-1" d="M47.68,17.45l0-10.34,4.43,0,0,8.22Zm1.06-9.32,0,7.71,2.4-1.14,0-6.56Z"/><polygon class="cls-1" points="70.73 11.84 70.68 4.45 74.1 4.44 74.14 13.46 70.73 11.84"/><path class="cls-1" d="M74.65,14.27l-4.43-2.11,0-8.21,4.44,0Zm-3.42-2.75,2.4,1.14,0-7.71h-2.4Z"/><polygon class="cls-1" points="77.63 15.03 77.59 7.64 81.01 7.62 81.05 16.65 77.63 15.03"/><path class="cls-1" d="M81.56,17.45l-4.43-2.1,0-8.22,4.43,0ZM78.14,14.7l2.4,1.14,0-7.71H78.1Z"/><path class="cls-1" d="M115.87,6.34a3.44,3.44,0,1,1-2.5,4.17,3.45,3.45,0,0,1,2.5-4.17Zm1.47,5.89a2.63,2.63,0,1,0-3.19-1.91,2.62,2.62,0,0,0,3.19,1.91Z"/><path class="cls-1" d="M117.75,13.85a4.3,4.3,0,0,1-2.62-8.18v0l1.07-.23a4.3,4.3,0,0,1,1.55,8.44ZM116.27,8a1.77,1.77,0,1,0,2.15,1.29A1.77,1.77,0,0,0,116.27,8Z"/><path class="cls-1" d="M92.08,23a3.44,3.44,0,1,1-2.5,4.17A3.44,3.44,0,0,1,92.08,23Zm1.48,5.89A2.63,2.63,0,1,0,90.37,27a2.64,2.64,0,0,0,3.19,1.92Z"/><path class="cls-1" d="M94,30.5a4.3,4.3,0,0,1-2.61-8.18v0l1.07-.23A4.3,4.3,0,0,1,94,30.5Zm-1.47-5.89a1.77,1.77,0,1,0,2.14,1.28A1.77,1.77,0,0,0,92.49,24.61Z"/><polygon class="cls-1" points="96.66 27.62 95.85 24.37 107.56 21.44 113.84 11.23 116.7 12.99 109.7 24.36 96.66 27.62"/><path class="cls-1" d="M96.29,28.24,95.23,24l12-3,6.45-10.46,3.72,2.29L110,24.8Zm.17-3.51L97,27l12.34-3.09L116,13.16l-2-1.23-6.13,10Z"/><path class="cls-1" d="M110.55,43.29a3.44,3.44,0,1,1-2.5,4.17,3.44,3.44,0,0,1,2.5-4.17ZM112,49.17a2.63,2.63,0,1,0-3.19-1.91A2.63,2.63,0,0,0,112,49.17C113.43,48.82,110.61,49.53,112,49.17Z"/><path class="cls-1" d="M112.43,50.79a4.3,4.3,0,0,1-2.61-8.17v0l1.07-.23a4.3,4.3,0,0,1,1.55,8.44ZM111,44.91a1.77,1.77,0,1,0,2.14,1.28A1.76,1.76,0,0,0,111,44.91Z"/><path class="cls-1" d="M91.85,52a3.44,3.44,0,1,1-2.5,4.18A3.45,3.45,0,0,1,91.85,52Zm1.48,5.89A2.63,2.63,0,1,0,90.13,56a2.64,2.64,0,0,0,3.2,1.91Z"/><path class="cls-1" d="M93.73,59.51a4.3,4.3,0,0,1-2.61-8.18v0l1.07-.23a4.3,4.3,0,0,1,1.55,8.44Zm-1.47-5.88a1.77,1.77,0,1,0,2.14,1.28A1.76,1.76,0,0,0,92.26,53.63Z"/><polygon class="cls-1" points="106.01 66.42 93.67 58.17 95.54 55.38 105.14 61.79 108.7 56.67 109.44 48.67 112.78 48.98 111.97 57.86 106.01 66.42"/><path class="cls-1" d="M106.14,67.11,93,58.31l2.43-3.64L105,61.09l3.2-4.6.77-8.37,4.36.4L112.46,58ZM94.38,58l11.5,7.69,5.59-8,.76-8.24-2.33-.22-.7,7.63-3.93,5.64-9.59-6.41Z"/><path class="cls-1" d="M120.38,21.22a3.44,3.44,0,1,1-2.5,4.17,3.44,3.44,0,0,1,2.5-4.17Zm1.47,5.89a2.63,2.63,0,1,0-3.19-1.92,2.64,2.64,0,0,0,3.19,1.92Z"/><path class="cls-1" d="M122.26,28.73a4.3,4.3,0,0,1-2.61-8.18v0l1.07-.23a4.3,4.3,0,0,1,1.55,8.45Zm-1.47-5.89a1.77,1.77,0,1,0,2.14,1.29A1.77,1.77,0,0,0,120.79,22.84Z"/><path class="cls-1" d="M96.39,37.59a3.44,3.44,0,1,1-2.5,4.17,3.45,3.45,0,0,1,2.5-4.17Zm1.47,5.89a2.63,2.63,0,1,0-3.19-1.91,2.62,2.62,0,0,0,3.19,1.91Z"/><path class="cls-1" d="M98.27,45.1a4.3,4.3,0,0,1-2.62-8.18v0l1.07-.23a4.3,4.3,0,0,1,1.55,8.44Zm-1.48-5.89a1.77,1.77,0,1,0,2.15,1.29A1.77,1.77,0,0,0,96.79,39.21Z"/><polygon class="cls-1" points="100.77 41.66 99.72 38.47 111.09 34.7 118.61 25.5 121.22 27.63 113.08 37.58 100.77 41.66"/><path class="cls-1" d="M100.45,42.3l-1.38-4.15,11.73-3.88,7.74-9.48,3.39,2.76L113.37,38Zm-.09-3.51.73,2.22,11.69-3.86,7.72-9.45-1.81-1.49-7.3,8.93Z"/><path class="cls-1" d="M13.37,6.34A3.44,3.44,0,1,1,9.2,8.85a3.44,3.44,0,0,1,4.17-2.51ZM11.9,12.23A2.63,2.63,0,1,0,10,9a2.62,2.62,0,0,0,1.91,3.19Z"/><path class="cls-1" d="M8.36,8.64A4.31,4.31,0,0,1,13,5.41l1.07.23v0a4.3,4.3,0,1,1-5.75,3Zm2.46.61A1.77,1.77,0,1,0,13,8,1.78,1.78,0,0,0,10.82,9.25Z"/><path class="cls-1" d="M37.16,23A3.44,3.44,0,1,1,33,25.49,3.44,3.44,0,0,1,37.16,23Zm-1.48,5.89a2.63,2.63,0,1,0-1.91-3.2,2.63,2.63,0,0,0,1.91,3.2C37.09,29.23,34.27,28.52,35.68,28.88Z"/><path class="cls-1" d="M32.15,25.28a4.31,4.31,0,0,1,4.68-3.23l1.07.23v0a4.3,4.3,0,1,1-5.74,3Zm2.46.61a1.77,1.77,0,1,0,2.14-1.28A1.77,1.77,0,0,0,34.61,25.89Z"/><polygon class="cls-1" points="32.58 27.62 33.39 24.37 21.68 21.44 15.4 11.23 12.54 12.99 19.54 24.36 32.58 27.62"/><path class="cls-1" d="M19.22,24.8l-7.38-12,3.72-2.29L22,21l12,3L33,28.24Zm2.14-2.92-6.13-9.95-2,1.23,6.63,10.76L32.21,27l.57-2.28Z"/><path class="cls-1" d="M18.69,43.29a3.44,3.44,0,1,1-4.17,2.5,3.44,3.44,0,0,1,4.17-2.5Zm-1.47,5.88A2.63,2.63,0,1,0,15.3,46a2.62,2.62,0,0,0,1.92,3.19Z"/><path class="cls-1" d="M13.68,45.58a4.31,4.31,0,0,1,4.68-3.23l1.07.23v0a4.3,4.3,0,1,1-5.74,3Zm2.46.61a1.77,1.77,0,1,0,2.14-1.28A1.77,1.77,0,0,0,16.14,46.19Z"/><path class="cls-1" d="M37.39,52a3.44,3.44,0,1,1-4.17,2.51A3.45,3.45,0,0,1,37.39,52Zm-1.48,5.89A2.63,2.63,0,1,0,34,54.7a2.64,2.64,0,0,0,1.91,3.19Z"/><path class="cls-1" d="M32.38,54.3a4.31,4.31,0,0,1,4.68-3.23l1.07.23v0a4.3,4.3,0,1,1-5.74,3Zm2.46.61A1.77,1.77,0,1,0,37,53.63,1.77,1.77,0,0,0,34.84,54.91Z"/><polygon class="cls-1" points="23.23 66.42 35.57 58.17 33.7 55.38 24.1 61.79 20.54 56.67 19.8 48.67 16.46 48.98 17.27 57.86 23.23 66.42"/><path class="cls-1" d="M16.78,58l-.88-9.52,4.36-.4L21,56.49l3.2,4.6,9.61-6.42,2.43,3.64L23.1,67.11Zm16.78-2L24,62.49,20,56.85l-.7-7.63L17,49.44l.76,8.24,5.59,8L34.86,58Z"/><path class="cls-1" d="M8.86,21.22a3.44,3.44,0,1,1-4.17,2.5,3.44,3.44,0,0,1,4.17-2.5ZM7.39,27.11a2.63,2.63,0,1,0-1.92-3.19,2.64,2.64,0,0,0,1.92,3.19Z"/><path class="cls-1" d="M3.85,23.51a4.31,4.31,0,0,1,4.68-3.23l1.07.23v0a4.3,4.3,0,1,1-5.74,3Zm2.46.62a1.77,1.77,0,1,0,2.14-1.29A1.77,1.77,0,0,0,6.31,24.13Z"/><path class="cls-1" d="M32.85,37.59a3.44,3.44,0,1,1-4.17,2.51,3.45,3.45,0,0,1,4.17-2.51Zm-1.47,5.89a2.63,2.63,0,1,0-1.91-3.19,2.63,2.63,0,0,0,1.91,3.19Z"/><path class="cls-1" d="M27.84,39.89a4.31,4.31,0,0,1,4.68-3.23l1.07.23v0a4.3,4.3,0,1,1-5.75,3Zm2.46.61a1.77,1.77,0,1,0,2.15-1.29A1.78,1.78,0,0,0,30.3,40.5Z"/><polygon class="cls-1" points="28.47 41.66 29.52 38.47 18.15 34.7 10.63 25.5 8.03 27.63 16.16 37.58 28.47 41.66"/><path class="cls-1" d="M15.87,38,7.31,27.55l3.39-2.76,7.74,9.48,11.73,3.88L28.79,42.3Zm2-2.88-7.3-8.93L8.74,27.7l7.72,9.45L28.15,41l.73-2.22Z"/><circle class="cls-2" cx="68.09" cy="31.97" r="2.02"/><polygon class="cls-3" points="83.75 23.8 64.55 14.76 45.31 23.84 40.73 44.7 54.27 61.28 75.42 61.28 88.62 44.63 83.75 23.8"/><polygon class="cls-4" points="76.38 29.29 64.6 23.74 52.79 29.31 49.98 42.12 58.29 52.3 71.27 52.3 79.37 42.07 76.38 29.29"/><path class="cls-5" d="M172.19,4.51A30.39,30.39,0,0,1,185,7.22a23.88,23.88,0,0,1,9.35,7.35,16.66,16.66,0,0,1,0,20.29,23.44,23.44,0,0,1-9.3,7.35,30.34,30.34,0,0,1-12.82,2.7H145.48V63.67h-15V16.35q0-5.75,3.85-8.79t11.11-3Zm0,28.57a11.56,11.56,0,0,0,7.48-2.49,7.15,7.15,0,0,0,0-11.79,11.64,11.64,0,0,0-7.48-2.45H145.48V33.08Z"/><path class="cls-5" d="M279.73,61.57a23.26,23.26,0,0,1-9.25-7.31,16.62,16.62,0,0,1,0-20.12,23.26,23.26,0,0,1,9.25-7.31,31.26,31.26,0,0,1,25.44,0,23.86,23.86,0,0,1,9.28,7.31,16.39,16.39,0,0,1,0,20.09,23.58,23.58,0,0,1-9.24,7.31,31.51,31.51,0,0,1-25.48,0Zm19.71-7.86a12.93,12.93,0,0,0,5.11-4,8.95,8.95,0,0,0,0-11,12.93,12.93,0,0,0-5.11-4,16.54,16.54,0,0,0-7-1.49,16.31,16.31,0,0,0-7,1.49,13.15,13.15,0,0,0-5.07,4,9,9,0,0,0,0,11,13.15,13.15,0,0,0,5.07,4,16.31,16.31,0,0,0,7,1.49A16.54,16.54,0,0,0,299.44,53.71Z"/><path class="cls-5" d="M324.43,36.63a8,8,0,0,1,.49-2.88,6.56,6.56,0,0,1,1.64-2.36,26.27,26.27,0,0,1,8.67-5.3,30.71,30.71,0,0,1,23.56.84l-5.73,7.83a16.11,16.11,0,0,0-7-1.56,16.79,16.79,0,0,0-5.32.84,13.56,13.56,0,0,0-4.42,2.4,1.08,1.08,0,0,0-.41.9V63.67H324.43Z"/><path class="cls-5" d="M408.93,47.08a5.5,5.5,0,0,1-3.59,1.2l-33.63-.13A12.42,12.42,0,0,0,377,53.48a15.81,15.81,0,0,0,8,2.11,18.4,18.4,0,0,0,6-1.14,14.57,14.57,0,0,0,4.87-2.87l11.28,2.58a23.49,23.49,0,0,1-9.32,7.38,31.17,31.17,0,0,1-25.4,0,23.16,23.16,0,0,1-9.24-7.31,16.54,16.54,0,0,1,0-20.09,23.27,23.27,0,0,1,9.24-7.28,31.43,31.43,0,0,1,25.4,0A23.24,23.24,0,0,1,407,34.2a16.7,16.7,0,0,1,3.4,10.07A3.54,3.54,0,0,1,408.93,47.08ZM376.54,35.24a12.18,12.18,0,0,0-5.23,5.92l27.56.13a11.85,11.85,0,0,0-5.15-5.95,16.29,16.29,0,0,0-8.59-2.46A16.12,16.12,0,0,0,376.54,35.24Z"/><path class="cls-5" d="M428.4,63.67H417V11.92H428.4Z"/><path class="cls-5" d="M439.36,18.19a4.43,4.43,0,0,1,0-7.24,7.8,7.8,0,0,1,9.17,0,4.43,4.43,0,0,1,0,7.24,7.8,7.8,0,0,1-9.17,0Zm-1.14,45.48V24.86h11.45V63.67Z"/><path class="cls-5" d="M471,61.8a21.54,21.54,0,0,1-8.38-6.63,14.88,14.88,0,0,1-3.11-9.09V24.86h11.45V46.08a7.54,7.54,0,0,0,1.55,4.56A10.7,10.7,0,0,0,476.71,54a14.13,14.13,0,0,0,11.53,0,10.67,10.67,0,0,0,4.21-3.33A7.49,7.49,0,0,0,494,46.08V24.86h11.45V46.08a15,15,0,0,1-3.11,9.09A21.61,21.61,0,0,1,494,61.8a28.09,28.09,0,0,1-23,0Z"/><path class="cls-5" d="M514.78,63.67V54.62h25.36a4.08,4.08,0,0,0,2.7-.88,2.63,2.63,0,0,0,1.07-2.1,2.52,2.52,0,0,0-1.11-2.07,4.25,4.25,0,0,0-2.66-.84H528.77a17.9,17.9,0,0,1-7.65-1.62,13.8,13.8,0,0,1-5.48-4.37,10,10,0,0,1-2-6,9.81,9.81,0,0,1,2-6,13.94,13.94,0,0,1,5.53-4.34,17.9,17.9,0,0,1,7.56-1.58h22.5v9h-22.5a4.21,4.21,0,0,0-2.62.81,2.49,2.49,0,0,0-1.06,2,2.57,2.57,0,0,0,1.06,2.07,4.11,4.11,0,0,0,2.62.84h11.37a17.9,17.9,0,0,1,7.65,1.62,14.08,14.08,0,0,1,5.52,4.37,9.76,9.76,0,0,1,2.05,6,9.87,9.87,0,0,1-2.05,6,14.17,14.17,0,0,1-5.52,4.37,17.9,17.9,0,0,1-7.65,1.61Z"/><path class="cls-5" d="M260.41,59.57a4.11,4.11,0,0,1-1.76,3.34,7.13,7.13,0,0,1-8.46,0,4.14,4.14,0,0,1-1.76-3.34V42.19a11.08,11.08,0,0,0-4.67-8.94,19.16,19.16,0,0,0-22.61,0,11.05,11.05,0,0,0-4.67,8.94V59.57a4.14,4.14,0,0,1-1.76,3.34,7.15,7.15,0,0,1-8.47,0,4.14,4.14,0,0,1-1.76-3.34V42.19q0-9.16,8.19-15.64t19.77-6.47q11.6,0,19.77,6.47t8.19,15.64Zm-34-17.38a4.17,4.17,0,0,1,1.76-3.35,7.15,7.15,0,0,1,8.47,0,4.16,4.16,0,0,1,1.75,3.35V59.57a4.13,4.13,0,0,1-1.75,3.34,7.15,7.15,0,0,1-8.47,0,4.14,4.14,0,0,1-1.76-3.34Z"/><circle class="cls-5" cx="311.75" cy="20.48" r="5.03"/></svg>